<svg width="12" height="7" viewBox="0 0 12 7" fill="none" xmlns="http://www.w3.org/2000/svg">
<g clip-path="url(#clip0_499_2)">
<path d="M6.00002 4.86002L10.54 0.32002C10.701 0.160634 10.9185 0.071228 11.145 0.071228C11.3716 0.071228 11.589 0.160634 11.75 0.32002C11.9077 0.483957 11.9957 0.702572 11.9957 0.93002C11.9957 1.15747 11.9077 1.37608 11.75 1.54002L6.61002 6.68002C6.45159 6.83278 6.24009 6.91814 6.02002 6.91814C5.79994 6.91814 5.58844 6.83278 5.43002 6.68002L0.250015 1.54002C0.169892 1.46095 0.106274 1.36675 0.0628519 1.26289C0.0194302 1.15904 -0.00292969 1.04759 -0.00292969 0.93502C-0.00292969 0.822451 0.0194302 0.711003 0.0628519 0.607146C0.106274 0.503289 0.169892 0.409091 0.250015 0.33002C0.329086 0.249898 0.423283 0.186279 0.527141 0.142857C0.630998 0.0994353 0.742446 0.0770755 0.855015 0.0770755C0.967584 0.0770755 1.07903 0.0994353 1.18289 0.142857C1.28675 0.186279 1.38094 0.249898 1.46002 0.33002L6.00002 4.86002Z" fill="black"/>
</g>
<defs>
<clipPath id="clip0_499_2">
<rect width="12" height="6.86" fill="white" transform="translate(0 0.0700073)"/>
</clipPath>
</defs>
</svg>
