<svg width="20" height="14" viewBox="0 0 20 14" fill="none" xmlns="http://www.w3.org/2000/svg">
<g clip-path="url(#clip0_499_6)">
<path d="M12.7499 0.510007C12.5808 0.68207 12.486 0.913709 12.486 1.15501C12.486 1.3963 12.5808 1.62794 12.7499 1.80001L16.9999 6.08001H0.899941C0.771746 6.06659 0.642162 6.08025 0.519587 6.12012C0.397012 6.15999 0.284183 6.22517 0.188413 6.31144C0.0926429 6.39771 0.016069 6.50314 -0.0363454 6.6209C-0.0887598 6.73865 -0.115845 6.86611 -0.115845 6.99501C-0.115845 7.1239 -0.0887598 7.25136 -0.0363454 7.36912C0.016069 7.48687 0.0926429 7.5923 0.188413 7.67857C0.284183 7.76484 0.397012 7.83002 0.519587 7.86989C0.642162 7.90976 0.771746 7.92343 0.899941 7.91001H16.9999L12.7399 12.25C12.5731 12.4233 12.4799 12.6545 12.4799 12.895C12.4799 13.1355 12.5731 13.3667 12.7399 13.54C12.8226 13.6229 12.9208 13.6886 13.0289 13.7334C13.137 13.7783 13.2529 13.8014 13.3699 13.8014C13.487 13.8014 13.6029 13.7783 13.711 13.7334C13.8191 13.6886 13.9173 13.6229 13.9999 13.54L19.7399 7.65001C19.8179 7.56379 19.882 7.46595 19.9299 7.36001C19.9781 7.2497 20.0019 7.13034 19.9999 7.01001C20.0009 6.89146 19.9784 6.7739 19.9338 6.66407C19.8892 6.55424 19.8233 6.4543 19.7399 6.37001L13.9999 0.530007C13.8413 0.367681 13.6266 0.272096 13.3999 0.262802C13.1731 0.253507 12.9513 0.331206 12.7799 0.480007L12.7499 0.510007Z" fill="black"/>
</g>
<defs>
<clipPath id="clip0_499_6">
<rect width="20" height="13.5" fill="white" transform="translate(0 0.25)"/>
</clipPath>
</defs>
</svg>
